<svg xmlns="http://www.w3.org/2000/svg" width="64" height="64" fill="none"><g clip-path="url(#a)"><path fill="#fff" d="M29.334 51.256c3.861 0 7.066 4.333 7.672 10.021a1.53 1.53 0 0 0 1.512 1.39 1.466 1.466 0 0 0 1.426-1.193c.336-1.673.503-3.375.499-5.082a24.205 24.205 0 0 0-1.728-9.17 15.522 15.522 0 0 0 3.952-11.372c0-5.133-3.235-9.184-7.224-9.184a7.166 7.166 0 0 0-6.11 3.467 7.166 7.166 0 0 0-6.109-3.466c-3.989 0-7.224 4.05-7.224 9.183a15.52 15.52 0 0 0 3.952 11.371 24.201 24.201 0 0 0-1.728 9.17c-.004 1.708.163 3.41.499 5.084a1.466 1.466 0 0 0 1.427 1.191 1.53 1.53 0 0 0 1.512-1.389c.605-5.688 3.81-10.021 7.672-10.021z"/><path fill="#FEFAE9" d="M42.634 36.688a15.75 15.75 0 0 1-13.301 8.56 15.75 15.75 0 0 1-13.302-8.56 15.184 15.184 0 0 0 3.92 10.533 24.202 24.202 0 0 0-1.728 9.171 25.47 25.47 0 0 0 .499 5.083 1.466 1.466 0 0 0 1.427 1.192 1.531 1.531 0 0 0 1.512-1.39c.605-5.688 3.81-10.021 7.672-10.021 3.861 0 7.066 4.333 7.672 10.021a1.53 1.53 0 0 0 1.512 1.39 1.467 1.467 0 0 0 1.426-1.192c.336-1.674.503-3.376.499-5.083a24.205 24.205 0 0 0-1.728-9.17 15.184 15.184 0 0 0 3.92-10.534z"/><path stroke="#1D1E22" stroke-linecap="round" stroke-linejoin="round" stroke-width="2" d="M29.334 51.256c3.861 0 7.066 4.333 7.672 10.021a1.53 1.53 0 0 0 1.512 1.39 1.466 1.466 0 0 0 1.426-1.193c.336-1.673.503-3.375.499-5.082a24.205 24.205 0 0 0-1.728-9.17 15.522 15.522 0 0 0 3.952-11.372c0-5.133-3.235-9.184-7.224-9.184a7.166 7.166 0 0 0-6.11 3.467 7.166 7.166 0 0 0-6.109-3.466c-3.989 0-7.224 4.05-7.224 9.183a15.52 15.52 0 0 0 3.952 11.371 24.201 24.201 0 0 0-1.728 9.17c-.004 1.708.163 3.41.499 5.084a1.466 1.466 0 0 0 1.427 1.191 1.53 1.53 0 0 0 1.512-1.389c.605-5.688 3.81-10.021 7.672-10.021z"/><path fill="#FEFAE9" stroke="#1D1E22" stroke-linecap="round" stroke-linejoin="round" stroke-width="2" d="m7.999 30.667 2.221-4.446 4.445-2.22-4.445-2.222-2.221-4.445-2.222 4.445L1.332 24l4.445 2.221L8 30.667zM54.668 56l2.667-5.333L62.668 48l-5.333-2.667L54.668 40l-2.667 5.333L46.668 48l5.333 2.667L54.668 56z"/><path fill="#fff" d="m19.331 2.632-4.04 8.43a2.666 2.666 0 0 0 1.243 3.556l11.44 5.486a2.665 2.665 0 0 0 3.557-1.253l4.04-8.43"/><path stroke="#1D1E22" stroke-linecap="round" stroke-linejoin="round" stroke-width="2" d="m19.331 2.632-4.04 8.43a2.666 2.666 0 0 0 1.243 3.556l11.44 5.486a2.665 2.665 0 0 0 3.557-1.253l4.04-8.43M16.623 1.333l46.043 22.075M22.152 10.646l-2.597 5.415m8.013-2.818-2.597 5.416"/></g><defs><clipPath id="a"><path fill="#fff" d="M0 0h64v64H0z"/></clipPath></defs></svg>