<svg xmlns="http://www.w3.org/2000/svg" width="64" height="64" fill="none"><g clip-path="url(#a)"><path fill="#fff" d="M24.66 43.224c6.76 0 12.368 7.382 13.427 17.067a2.666 2.666 0 0 0 2.645 2.37 2.552 2.552 0 0 0 2.496-2.032c.587-2.85.88-5.753.875-8.663a40.268 40.268 0 0 0-3.038-15.617C44.956 32.48 48 26.44 48 16.976 48 8.23 42.333 1.334 35.354 1.334a12.627 12.627 0 0 0-10.693 5.92 12.632 12.632 0 0 0-10.696-5.92c-6.976 0-12.632 6.896-12.632 15.642 0 9.464 3.035 15.504 6.915 19.373a40.267 40.267 0 0 0-3.03 15.622c-.004 2.91.29 5.813.875 8.664a2.552 2.552 0 0 0 2.499 2.032 2.667 2.667 0 0 0 2.645-2.37c1.053-9.691 6.664-17.073 13.424-17.073z"/><path fill="#F2F5F9" d="M24.66 43.181a24.595 24.595 0 0 1-16.533-6.538A40.357 40.357 0 0 0 5.194 51.97a42.74 42.74 0 0 0 .875 8.664 2.552 2.552 0 0 0 2.498 2.032 2.666 2.666 0 0 0 2.646-2.371c1.066-9.69 6.666-17.067 13.426-17.067s12.368 7.382 13.427 17.067a2.666 2.666 0 0 0 2.645 2.37 2.552 2.552 0 0 0 2.496-2.031c.587-2.85.88-5.754.875-8.664a40.305 40.305 0 0 0-2.933-15.328A24.58 24.58 0 0 1 24.66 43.18z"/><path stroke="#1D1E22" stroke-linecap="round" stroke-linejoin="round" stroke-width="2" d="M39.98 2.4a10.594 10.594 0 0 0-4.627-1.067 12.627 12.627 0 0 0-10.693 5.92 12.632 12.632 0 0 0-10.696-5.92c-6.976 0-12.632 6.896-12.632 15.643 0 9.464 3.035 15.504 6.915 19.373a40.315 40.315 0 0 0-3.03 15.622c-.004 2.91.29 5.813.875 8.664a2.555 2.555 0 0 0 2.499 2.032 2.667 2.667 0 0 0 2.645-2.37c1.067-9.691 6.667-17.067 13.427-17.067s12.37 7.38 13.426 17.066a2.667 2.667 0 0 0 2.646 2.37 2.551 2.551 0 0 0 2.496-2.031c.587-2.85.88-5.754.874-8.664a42.6 42.6 0 0 0-.8-8.232"/><path fill="#F2F5F9" d="M46.668 38.666a16 16 0 1 0 0-32 16 16 0 0 0 0 32z"/><path fill="#fff" d="M42.71 6.669a16 16 0 0 0-2.343 29.857S46.529 30 50.4 23.2c3.872-6.8 5.398-14.59 5.398-14.59A15.939 15.939 0 0 0 42.71 6.67z"/><path stroke="#1D1E22" stroke-linecap="round" stroke-linejoin="round" stroke-width="2" d="M46.668 38.666a16 16 0 1 0 0-32 16 16 0 0 0 0 32z"/><path stroke="#1D1E22" stroke-linecap="round" stroke-linejoin="round" stroke-width="2" d="m53.795 18.027-7.733 10.33a2 2 0 0 1-3.013.214l-4-4"/></g><defs><clipPath id="a"><path fill="#fff" d="M0 0h64v64H0z"/></clipPath></defs></svg>