<svg xmlns="http://www.w3.org/2000/svg" width="64" height="64" fill="none"><path fill="#fff" d="M43.947 37.093a39.061 39.061 0 0 1 2.934 15.174 43.012 43.012 0 0 1-.827 8.426 2.482 2.482 0 0 1-2.427 1.974 2.598 2.598 0 0 1-2.586-2.294C40.027 50.96 34.56 43.787 28 43.787c-6.56 0-12.027 7.173-13.04 16.586a2.598 2.598 0 0 1-2.587 2.294 2.482 2.482 0 0 1-2.427-1.974 43.009 43.009 0 0 1-.826-8.426 39.06 39.06 0 0 1 2.933-15.174c-3.787-3.76-6.72-9.626-6.72-18.826 0-8.48 5.493-15.174 12.267-15.174A12.28 12.28 0 0 1 28 8.827a12.51 12.51 0 0 1 2.312-2.694 1.334 1.334 0 0 1 2.162 1.363A14.666 14.666 0 0 0 46.61 26.075c.453 0 .904-.022 1.333-.064a1.333 1.333 0 0 1 1.405 1.7 21.535 21.535 0 0 1-5.4 9.382z"/><path fill="#F6EEE4" d="M28.05 43.787a23.232 23.232 0 0 1-16.082-6.453A39.12 39.12 0 0 0 9.12 52.267c-.002 2.83.275 5.652.827 8.426a2.483 2.483 0 0 0 2.427 1.974 2.597 2.597 0 0 0 2.586-2.294C15.973 50.96 21.44 43.788 28 43.788c6.56 0 12.027 7.173 13.04 16.587a2.597 2.597 0 0 0 2.587 2.293 2.483 2.483 0 0 0 2.426-1.974 42.87 42.87 0 0 0 .827-8.426A39.09 39.09 0 0 0 44.056 37.4a23.221 23.221 0 0 1-16.005 6.387z"/><path stroke="#1D1E22" stroke-linecap="round" stroke-linejoin="round" stroke-width="2" d="M43.947 37.093a39.06 39.06 0 0 1 2.934 15.174 43.012 43.012 0 0 1-.827 8.426 2.483 2.483 0 0 1-2.427 1.974 2.598 2.598 0 0 1-2.586-2.294C40.027 50.96 34.56 43.787 28 43.787c-6.56 0-12.027 7.173-13.04 16.586a2.598 2.598 0 0 1-2.587 2.294 2.482 2.482 0 0 1-2.427-1.974 43.009 43.009 0 0 1-.826-8.426 39.06 39.06 0 0 1 2.933-15.174c-3.787-3.76-6.72-9.626-6.72-18.826 0-8.48 5.493-15.174 12.267-15.174A12.28 12.28 0 0 1 28 8.827a12.513 12.513 0 0 1 2.312-2.694 1.334 1.334 0 0 1 2.162 1.363A14.666 14.666 0 0 0 46.61 26.075c.453 0 .904-.022 1.333-.064a1.333 1.333 0 0 1 1.405 1.7 21.535 21.535 0 0 1-5.4 9.382zm-1.281-31.76v-4m8.486 7.515 2.83-2.83m.684 11.316h4"/></svg>