<svg xmlns="http://www.w3.org/2000/svg" width="64" height="64" fill="none"><path fill="#F6F6F7" stroke="#1D1E22" stroke-linecap="round" stroke-linejoin="round" stroke-width="2" d="M58.665 46.96v11.093a2.667 2.667 0 0 1-2.24 2.64 151.662 151.662 0 0 1-48.853 0 2.688 2.688 0 0 1-2.24-2.64V46.96a6.667 6.667 0 1 0 13.333 0 6.666 6.666 0 1 0 13.334 0 6.667 6.667 0 0 0 13.333 0 6.666 6.666 0 1 0 13.333 0zm0-41.013V17.04a6.667 6.667 0 0 0-13.333 0 6.666 6.666 0 1 0-13.333 0 6.667 6.667 0 0 0-13.334 0 6.667 6.667 0 0 0-13.333 0V5.947a2.667 2.667 0 0 1 2.24-2.64 151.662 151.662 0 0 1 48.853 0 2.688 2.688 0 0 1 2.24 2.64z"/><path fill="#fff" d="M18.665 17.04v8.293A2.667 2.667 0 0 1 16 28H8a2.667 2.667 0 0 1-2.667-2.667V17.04a6.667 6.667 0 1 1 13.333 0z"/><path fill="#F6F6F7" d="M15.999 23.48h-8a2.667 2.667 0 0 1-2.667-2.667v4.52A2.667 2.667 0 0 0 7.999 28h8a2.667 2.667 0 0 0 2.666-2.667V20.8A2.668 2.668 0 0 1 16 23.48z"/><path stroke="#1D1E22" stroke-linecap="round" stroke-linejoin="round" stroke-width="2" d="M18.665 17.04v8.293A2.667 2.667 0 0 1 16 28H8a2.667 2.667 0 0 1-2.667-2.667V17.04a6.667 6.667 0 1 1 13.333 0z"/><path fill="#fff" d="M32.001 17.04v8.293A2.667 2.667 0 0 1 29.335 28h-8a2.667 2.667 0 0 1-2.667-2.667V17.04a6.666 6.666 0 1 1 13.333 0z"/><path fill="#F6F6F7" d="M29.335 23.48h-8a2.667 2.667 0 0 1-2.667-2.667v4.52A2.667 2.667 0 0 0 21.335 28h8A2.667 2.667 0 0 0 32 25.333V20.8a2.667 2.667 0 0 1-2.666 2.68z"/><path stroke="#1D1E22" stroke-linecap="round" stroke-linejoin="round" stroke-width="2" d="M32.001 17.04v8.293A2.667 2.667 0 0 1 29.335 28h-8a2.667 2.667 0 0 1-2.667-2.667V17.04a6.666 6.666 0 1 1 13.333 0z"/><path fill="#fff" d="M45.333 17.04v8.294A2.667 2.667 0 0 1 42.667 28h-8A2.667 2.667 0 0 1 32 25.334V17.04a6.667 6.667 0 0 1 13.333 0z"/><path fill="#F6F6F7" d="M42.667 23.48h-8A2.667 2.667 0 0 1 32 20.813v4.52A2.667 2.667 0 0 0 34.667 28h8a2.667 2.667 0 0 0 2.666-2.667V20.8a2.667 2.667 0 0 1-2.666 2.68z"/><path stroke="#1D1E22" stroke-linecap="round" stroke-linejoin="round" stroke-width="2" d="M45.333 17.04v8.294A2.667 2.667 0 0 1 42.667 28h-8A2.667 2.667 0 0 1 32 25.334V17.04a6.667 6.667 0 0 1 13.333 0z"/><path fill="#fff" d="M58.665 17.04v8.293A2.667 2.667 0 0 1 56 28h-8a2.667 2.667 0 0 1-2.667-2.667V17.04a6.666 6.666 0 1 1 13.333 0z"/><path fill="#F6F6F7" d="M55.999 23.48h-8a2.667 2.667 0 0 1-2.667-2.667v4.52A2.667 2.667 0 0 0 47.999 28h8a2.667 2.667 0 0 0 2.666-2.667V20.8A2.668 2.668 0 0 1 56 23.48z"/><path stroke="#1D1E22" stroke-linecap="round" stroke-linejoin="round" stroke-width="2" d="M58.665 17.04v8.293A2.667 2.667 0 0 1 56 28h-8a2.667 2.667 0 0 1-2.667-2.667V17.04a6.666 6.666 0 1 1 13.333 0z"/><path fill="#F6F6F7" d="M45.332 46.955v-8.288A2.667 2.667 0 0 1 47.999 36h8a2.667 2.667 0 0 1 2.666 2.667v8.293a6.666 6.666 0 1 1-13.333 0v-.005z"/><path fill="#fff" d="M47.999 40.515h8a2.667 2.667 0 0 1 2.666 2.666v-4.514A2.667 2.667 0 0 0 56 36h-8a2.667 2.667 0 0 0-2.667 2.667V43.2A2.666 2.666 0 0 1 48 40.515z"/><path stroke="#1D1E22" stroke-linecap="round" stroke-linejoin="round" stroke-width="2" d="M45.332 46.955v-8.288A2.667 2.667 0 0 1 47.999 36h8a2.667 2.667 0 0 1 2.666 2.667v8.293a6.666 6.666 0 1 1-13.333 0v-.005z"/><path fill="#F6F6F7" d="M32 46.955v-8.288A2.667 2.667 0 0 1 34.667 36h8a2.667 2.667 0 0 1 2.666 2.667v8.293a6.666 6.666 0 1 1-13.333 0v-.005z"/><path fill="#fff" d="M34.667 40.515h8a2.667 2.667 0 0 1 2.666 2.666v-4.514A2.667 2.667 0 0 0 42.667 36h-8A2.667 2.667 0 0 0 32 38.667V43.2a2.666 2.666 0 0 1 2.667-2.685z"/><path stroke="#1D1E22" stroke-linecap="round" stroke-linejoin="round" stroke-width="2" d="M32 46.955v-8.288A2.667 2.667 0 0 1 34.667 36h8a2.667 2.667 0 0 1 2.666 2.667v8.293a6.666 6.666 0 1 1-13.333 0v-.005z"/><path fill="#F6F6F7" d="M18.668 46.955v-8.288A2.667 2.667 0 0 1 21.335 36h8A2.667 2.667 0 0 1 32 38.667v8.293a6.667 6.667 0 0 1-13.333 0v-.005z"/><path fill="#fff" d="M21.335 40.515h8A2.667 2.667 0 0 1 32 43.18v-4.514A2.667 2.667 0 0 0 29.335 36h-8a2.667 2.667 0 0 0-2.667 2.667V43.2a2.668 2.668 0 0 1 2.667-2.685z"/><path stroke="#1D1E22" stroke-linecap="round" stroke-linejoin="round" stroke-width="2" d="M18.668 46.955v-8.288A2.667 2.667 0 0 1 21.335 36h8A2.667 2.667 0 0 1 32 38.667v8.293a6.667 6.667 0 0 1-13.333 0v-.005z"/><path fill="#F6F6F7" d="M5.332 46.955v-8.288A2.667 2.667 0 0 1 7.999 36h8a2.667 2.667 0 0 1 2.666 2.667v8.293a6.666 6.666 0 1 1-13.333 0v-.005z"/><path fill="#fff" d="M7.999 40.515h8a2.667 2.667 0 0 1 2.666 2.666v-4.514A2.667 2.667 0 0 0 16 36H8a2.667 2.667 0 0 0-2.667 2.667V43.2A2.666 2.666 0 0 1 8 40.515z"/><path stroke="#1D1E22" stroke-linecap="round" stroke-linejoin="round" stroke-width="2" d="M5.332 46.955v-8.288A2.667 2.667 0 0 1 7.999 36h8a2.667 2.667 0 0 1 2.666 2.667v8.293a6.666 6.666 0 1 1-13.333 0v-.005z"/></svg>